HIERARCHY
ROOT Hips
{
	OFFSET 0.000000 35.082581 0.000000
	CHANNELS 6 Xposition Yposition Zposition Xrotation Yrotation Zrotation 
	JOINT Spine
	{
		OFFSET 0.000000 6.876099 0.125700
		CHANNELS 3 Xrotation Yrotation Zrotation
		JOINT Spine1
		{
			OFFSET 0.000000 5.730043 0.104720
			CHANNELS 3 Xrotation Yrotation Zrotation
			JOINT Spine1_split
			{
				OFFSET 0.000000 5.730043 0.104720
				CHANNELS 3 Xrotation Yrotation Zrotation
				JOINT Spine2
				{
					OFFSET 0.000000 5.730043 0.104720
					CHANNELS 3 Xrotation Yrotation Zrotation
					JOINT Neck
					{
						OFFSET 0.000000 10.314075 0.188496
						CHANNELS 3 Xrotation Yrotation Zrotation
						JOINT Head
						{
							OFFSET 0.000000 7.643700 -2.377400
							CHANNELS 3 Xrotation Yrotation Zrotation
							JOINT HeadTop_End
							{
								OFFSET 0.000000 43.788605 -13.619600
								CHANNELS 3 Xrotation Yrotation Zrotation
								End Site
								{
									OFFSET 0.000000 0.000000 0.000000
								}
							}
						}
					}
					JOINT LeftShoulder
					{
						OFFSET 2.196100 4.412489 0.087492
						CHANNELS 3 Xrotation Yrotation Zrotation
						JOINT LeftShoulder_split
						{
							OFFSET 2.196100 4.412489 0.087492
							CHANNELS 3 Xrotation Yrotation Zrotation
							JOINT LeftArm
							{
								OFFSET 8.771219 -2.981674 -0.026999
								CHANNELS 3 Xrotation Yrotation Zrotation
								JOINT LeftForeArm
								{
									OFFSET 8.512804 0.000000 -0.000000
									CHANNELS 3 Xrotation Yrotation Zrotation
									JOINT LeftHand
									{
										OFFSET 18.484802 0.000000 -0.000000
										CHANNELS 3 Xrotation Yrotation Zrotation
										JOINT LeftHandThumb1
										{
											OFFSET 2.499420 -1.158070 2.653252
											CHANNELS 3 Xrotation Yrotation Zrotation
											JOINT LeftHandThumb2
											{
												OFFSET 2.370079 -1.368366 1.368366
												CHANNELS 3 Xrotation Yrotation Zrotation
												JOINT LeftHandThumb3
												{
													OFFSET 2.676727 -1.545410 1.545409
													CHANNELS 3 Xrotation Yrotation Zrotation
													JOINT LeftHandThumb4
													{
														OFFSET 1.692226 -0.977005 0.977007
														CHANNELS 3 Xrotation Yrotation Zrotation
														End Site
														{
															OFFSET 0.000000 0.000000 0.000000
														}
													}
												}
											}
										}
										JOINT LeftHandIndex1
										{
											OFFSET 7.924831 -0.457527 2.345128
											CHANNELS 3 Xrotation Yrotation Zrotation
											JOINT LeftHandIndex2
											{
												OFFSET 3.643303 0.000000 0.000000
												CHANNELS 3 Xrotation Yrotation Zrotation
												JOINT LeftHandIndex3
												{
													OFFSET 3.810799 0.000000 0.000000
													CHANNELS 3 Xrotation Yrotation Zrotation
													JOINT LeftHandIndex4
													{
														OFFSET 2.403702 0.000000 0.000000
														CHANNELS 3 Xrotation Yrotation Zrotation
														End Site
														{
															OFFSET 0.000000 0.000000 0.000000
														}
													}
												}
											}
										}
										JOINT LeftHandMiddle1
										{
											OFFSET 8.563995 0.000000 -0.000000
											CHANNELS 3 Xrotation Yrotation Zrotation
											JOINT LeftHandMiddle2
											{
												OFFSET 3.861618 0.000000 0.000000
												CHANNELS 3 Xrotation Yrotation Zrotation
												JOINT LeftHandMiddle3
												{
													OFFSET 3.701603 0.000000 0.000000
													CHANNELS 3 Xrotation Yrotation Zrotation
													JOINT LeftHandMiddle4
													{
														OFFSET 2.322544 0.000000 0.000000
														CHANNELS 3 Xrotation Yrotation Zrotation
														End Site
														{
															OFFSET 0.000000 0.000000 0.000000
														}
													}
												}
											}
										}
										JOINT LeftHandRing1
										{
											OFFSET 8.426460 -0.424637 -3.286992
											CHANNELS 3 Xrotation Yrotation Zrotation
											JOINT LeftHandRing2
											{
												OFFSET 3.126408 0.000000 0.000000
												CHANNELS 3 Xrotation Yrotation Zrotation
												JOINT LeftHandRing3
												{
													OFFSET 3.085026 0.000000 0.000000
													CHANNELS 3 Xrotation Yrotation Zrotation
													JOINT LeftHandRing4
													{
														OFFSET 1.644005 0.000000 0.000000
														CHANNELS 3 Xrotation Yrotation Zrotation
														End Site
														{
															OFFSET 0.000000 0.000000 0.000000
														}
													}
												}
											}
										}
									}
								}
							}
						}
					}
					JOINT RightShoulder
					{
						OFFSET -2.196100 4.412496 0.070690
						CHANNELS 3 Xrotation Yrotation Zrotation
						JOINT RightShoulder_split
						{
							OFFSET -2.196100 4.412496 0.070690
							CHANNELS 3 Xrotation Yrotation Zrotation
							JOINT RightArm
							{
								OFFSET -8.771282 -2.981682 -0.094208
								CHANNELS 3 Xrotation Yrotation Zrotation
								JOINT RightForeArm
								{
									OFFSET -8.494598 0.000000 0.000000
									CHANNELS 3 Xrotation Yrotation Zrotation
									JOINT RightHand
									{
										OFFSET -18.483803 0.000000 0.000001
										CHANNELS 3 Xrotation Yrotation Zrotation
										JOINT RightHandThumb1
										{
											OFFSET -2.527351 -1.008072 2.575253
											CHANNELS 3 Xrotation Yrotation Zrotation
											JOINT RightHandThumb2
											{
												OFFSET -2.321518 -1.340328 1.340329
												CHANNELS 3 Xrotation Yrotation Zrotation
												JOINT RightHandThumb3
												{
													OFFSET -2.657753 -1.534454 1.534455
													CHANNELS 3 Xrotation Yrotation Zrotation
													JOINT RightHandThumb4
													{
														OFFSET -1.807510 -1.043568 1.043567
														CHANNELS 3 Xrotation Yrotation Zrotation
														End Site
														{
															OFFSET 0.000000 0.000000 0.000000
														}
													}
												}
											}
										}
										JOINT RightHandIndex1
										{
											OFFSET -8.811420 0.015533 2.887987
											CHANNELS 3 Xrotation Yrotation Zrotation
											JOINT RightHandIndex2
											{
												OFFSET -3.537502 0.000000 0.000000
												CHANNELS 3 Xrotation Yrotation Zrotation
												JOINT RightHandIndex3
												{
													OFFSET -3.356201 0.000000 0.000000
													CHANNELS 3 Xrotation Yrotation Zrotation
													JOINT RightHandIndex4
													{
														OFFSET -1.933098 0.000000 0.000000
														CHANNELS 3 Xrotation Yrotation Zrotation
														End Site
														{
															OFFSET 0.000000 0.000000 0.000000
														}
													}
												}
											}
										}
										JOINT RightHandMiddle1
										{
											OFFSET -8.178135 0.000000 0.000000
											CHANNELS 3 Xrotation Yrotation Zrotation
											JOINT RightHandMiddle2
											{
												OFFSET -3.901302 0.000000 0.000000
												CHANNELS 3 Xrotation Yrotation Zrotation
												JOINT RightHandMiddle3
												{
													OFFSET -3.909599 0.000000 0.000000
													CHANNELS 3 Xrotation Yrotation Zrotation
													JOINT RightHandMiddle4
													{
														OFFSET -2.376003 0.000000 0.000000
														CHANNELS 3 Xrotation Yrotation Zrotation
														End Site
														{
															OFFSET 0.000000 0.000000 0.000000
														}
													}
												}
											}
										}
										JOINT RightHandRing1
										{
											OFFSET -7.559013 0.014137 -2.865403
											CHANNELS 3 Xrotation Yrotation Zrotation
											JOINT RightHandRing2
											{
												OFFSET -3.449306 0.000000 0.000000
												CHANNELS 3 Xrotation Yrotation Zrotation
												JOINT RightHandRing3
												{
													OFFSET -3.362106 0.000000 0.000000
													CHANNELS 3 Xrotation Yrotation Zrotation
													JOINT RightHandRing4
													{
														OFFSET -2.076401 0.000000 0.000000
														CHANNELS 3 Xrotation Yrotation Zrotation
														End Site
														{
															OFFSET 0.000000 0.000000 0.000000
														}
													}
												}
											}
										}
									}
								}
							}
						}
					}
				}
			}
		}
	}
	JOINT LeftUpLeg
	{
		OFFSET 10.205400 -3.823500 0.155100
		CHANNELS 3 Xrotation Yrotation Zrotation
		JOINT LeftLeg
		{
			OFFSET 0.708757 -12.982077 0.567790
			CHANNELS 3 Xrotation Yrotation Zrotation
			JOINT LeftFoot
			{
				OFFSET -0.708756 -10.717838 -2.184338
				CHANNELS 3 Xrotation Yrotation Zrotation
				JOINT LeftToeBase
				{
					OFFSET 0.108149 -7.191104 7.560241
					CHANNELS 3 Xrotation Yrotation Zrotation
					JOINT LeftToe_End
					{
						OFFSET 0.070230 0.081724 4.490308
						CHANNELS 3 Xrotation Yrotation Zrotation
						End Site
						{
							OFFSET 0.000000 0.000000 0.000000
						}
					}
				}
			}
		}
	}
	JOINT RightUpLeg
	{
		OFFSET -10.205400 -3.823500 0.005500
		CHANNELS 3 Xrotation Yrotation Zrotation
		JOINT RightLeg
		{
			OFFSET -0.708756 -12.982134 0.610632
			CHANNELS 3 Xrotation Yrotation Zrotation
			JOINT RightFoot
			{
				OFFSET 0.708754 -10.717769 -1.945823
				CHANNELS 3 Xrotation Yrotation Zrotation
				JOINT RightToeBase
				{
					OFFSET -0.108140 -7.191069 7.372968
					CHANNELS 3 Xrotation Yrotation Zrotation
					JOINT RightToe_End
					{
						OFFSET -0.070227 0.081735 4.479403
						CHANNELS 3 Xrotation Yrotation Zrotation
						End Site
						{
							OFFSET 0.000000 0.000000 0.000000
						}
					}
				}
			}
		}
	}
}
MOTION
Frames: 4
Frame Time: 0.016667
0.123605 32.792610 -0.231652 -19.770824 -82.292073 -20.853751 2.271989 0.096407 -0.061240 4.588851 0.048057 1.587649 0.000000 0.000000 0.000000 4.566500 0.058996 1.631779 -6.449451 9.163146 -4.228991 1.306331 37.856662 -3.127864 -0.000000 -0.000001 0.000000 -0.232473 4.637864 -1.359657 0.000000 0.000000 0.000000 25.122138 -77.231244 -42.206321 0.000000 -14.145796 -0.000004 -51.489873 1.622360 10.545771 -3.708764 -5.344614 -9.285605 10.685372 16.536445 0.020121 2.736440 5.880157 2.697162 -0.000003 -0.000001 -0.000002 0.013967 0.439249 -3.642311 0.025877 0.597752 -4.959523 0.006488 0.299149 -2.479705 -0.000002 0.000000 -0.000000 0.013836 0.437319 -3.626329 0.026047 0.599675 -4.975523 0.006496 0.299157 -2.479708 0.000000 -0.000000 -0.000000 0.013968 0.439246 -3.642311 0.025886 0.597750 -4.959522 0.006485 0.299148 -2.479699 0.000001 -0.000000 -0.000000 1.612998 4.329169 7.043632 0.000000 0.000000 0.000000 8.595144 25.593769 60.579516 -0.000016 32.803674 -0.000002 -7.794407 -23.342737 -5.537476 37.238058 11.415902 9.503643 21.038909 -27.717309 1.484842 6.453882 -9.653876 -2.759922 0.000003 -0.000003 0.000004 2.191301 -5.070347 46.723521 2.298112 -5.168467 47.920775 0.598781 -2.827570 23.908531 -0.000000 -0.000001 -0.000000 2.191296 -5.070347 46.723531 2.298120 -5.168475 47.920768 0.598780 -2.827573 23.908527 -0.000001 0.000003 -0.000001 2.191295 -5.070347 46.723518 2.298129 -5.168470 47.920781 0.598775 -2.827575 23.908519 0.000002 0.000000 0.000000 -20.532293 12.656145 14.081896 38.774291 -4.527689 4.718935 -16.447442 3.261375 -10.107603 -0.000050 0.000006 -0.000006 0.000000 -0.000004 0.000000 -13.348436 -21.820436 -13.308420 31.398728 10.078802 -9.314031 -16.597076 -3.964754 14.185190 -0.001929 -0.000020 -0.000002 0.000000 -0.000000 -0.000000 
0.122082 32.795311 -0.233325 -19.887730 -82.283145 -20.966772 2.267126 0.087018 -0.058946 4.580605 0.031469 1.605107 0.000000 0.000000 0.000000 4.558149 0.042193 1.649044 -6.406090 9.181256 -4.285428 1.307515 37.876776 -3.128334 0.000000 0.000000 -0.000000 -0.234254 4.680272 -1.477802 0.000000 0.000000 0.000000 26.581548 -77.401978 -40.727551 0.000006 -14.148549 0.000015 -51.846497 1.696118 10.532962 -3.708769 -5.344617 -9.285607 10.685370 16.536451 0.020121 2.736441 5.880159 2.697166 -0.000003 0.000001 -0.000000 0.013969 0.439246 -3.642312 0.025874 0.597753 -4.959524 0.006489 0.299149 -2.479705 -0.000002 -0.000000 0.000000 0.013839 0.437321 -3.626329 0.026050 0.599677 -4.975523 0.006496 0.299158 -2.479707 0.000002 -0.000000 0.000000 0.013966 0.439247 -3.642313 0.025885 0.597748 -4.959522 0.006478 0.299151 -2.479700 0.000000 -0.000000 -0.000000 1.618819 4.365941 6.951343 0.000000 0.000000 0.000000 8.569718 25.644845 60.639184 0.000019 32.733948 -0.000037 -7.806384 -23.236746 -5.557158 37.238215 11.416014 9.503710 21.038970 -27.717401 1.484856 6.453919 -9.653907 -2.759932 0.000001 -0.000002 -0.000000 2.191299 -5.070358 46.723514 2.298124 -5.168469 47.920781 0.598779 -2.827551 23.908521 -0.000001 0.000003 -0.000002 2.191296 -5.070359 46.723524 2.298126 -5.168469 47.920768 0.598771 -2.827542 23.908527 0.000001 0.000002 0.000000 2.191310 -5.070352 46.723521 2.298123 -5.168461 47.920771 0.598776 -2.827550 23.908527 -0.000001 0.000003 0.000001 -20.500024 12.671055 14.067841 38.743224 -4.525191 4.733403 -16.430925 3.263218 -10.112100 -0.000007 -0.000009 0.000002 0.000000 -0.000001 0.000000 -13.309059 -21.835683 -13.304940 31.367251 10.087757 -9.316990 -16.588479 -3.966196 14.186511 -0.001945 -0.000023 0.000000 0.000000 -0.000001 0.000000 
0.120618 32.797977 -0.234632 -20.003208 -82.273884 -21.083086 2.260301 0.075115 -0.052228 4.568350 0.010029 1.625758 0.000000 0.000000 0.000000 4.545689 0.020621 1.669544 -6.358687 9.200897 -4.344189 1.308286 37.902560 -3.127767 0.000000 -0.000001 -0.000000 -0.236515 4.731574 -1.616330 0.000000 0.000000 0.000000 28.224871 -77.569072 -39.068293 -0.000009 -14.159482 -0.000012 -52.203197 1.758409 10.523196 -3.708761 -5.344617 -9.285608 10.685367 16.536448 0.020123 2.736447 5.880161 2.697160 -0.000007 -0.000001 -0.000001 0.013969 0.439249 -3.642313 0.025875 0.597753 -4.959522 0.006491 0.299151 -2.479705 0.000000 -0.000000 0.000000 0.013838 0.437322 -3.626330 0.026049 0.599676 -4.975522 0.006497 0.299157 -2.479707 -0.000000 0.000001 0.000000 0.013967 0.439247 -3.642311 0.025884 0.597749 -4.959524 0.006484 0.299150 -2.479700 -0.000001 -0.000000 0.000000 1.625862 4.410173 6.848804 0.000000 0.000000 0.000000 8.546710 25.709177 60.700998 0.000002 32.649663 0.000009 -7.850796 -23.139289 -5.600583 37.238386 11.416127 9.503743 21.039033 -27.717492 1.484865 6.453943 -9.653955 -2.759961 0.000001 -0.000001 0.000003 2.191287 -5.070354 46.723504 2.298132 -5.168478 47.920781 0.598774 -2.827534 23.908521 0.000001 -0.000001 -0.000002 2.191294 -5.070352 46.723514 2.298126 -5.168479 47.920768 0.598775 -2.827550 23.908539 0.000001 0.000003 -0.000001 2.191290 -5.070354 46.723521 2.298135 -5.168477 47.920771 0.598769 -2.827538 23.908519 0.000001 0.000002 -0.000000 -20.468163 12.670497 14.062084 38.718044 -4.520304 4.738773 -16.419122 3.264566 -10.116856 -0.000036 -0.000002 -0.000002 -0.000000 -0.000001 0.000000 -13.261574 -21.844991 -13.297559 31.323913 10.091658 -9.307478 -16.573679 -3.965887 14.184205 -0.001980 -0.000010 0.000004 0.000000 -0.000000 -0.000000 
0.119329 32.800652 -0.235503 -20.107988 -82.263126 -21.192991 2.252430 0.061450 -0.040483 4.553619 -0.015312 1.649033 0.000000 0.000000 0.000000 4.530655 -0.004758 1.692762 -6.309806 9.221838 -4.404453 1.308203 37.933310 -3.125745 0.000001 -0.000001 0.000000 -0.239166 4.791740 -1.775053 0.000000 0.000000 0.000000 30.042631 -77.727198 -37.237225 -0.000015 -14.178581 0.000002 -52.563756 1.800052 10.528917 -3.708765 -5.344617 -9.285607 10.685364 16.536448 0.020124 2.736445 5.880170 2.697164 -0.000006 -0.000003 -0.000001 0.013967 0.439248 -3.642314 0.025875 0.597753 -4.959523 0.006490 0.299150 -2.479706 -0.000001 0.000001 -0.000001 0.013839 0.437320 -3.626328 0.026049 0.599676 -4.975523 0.006495 0.299157 -2.479707 0.000001 -0.000001 0.000001 0.013965 0.439244 -3.642313 0.025881 0.597752 -4.959523 0.006482 0.299150 -2.479699 -0.000001 -0.000001 -0.000000 1.633882 4.460057 6.738910 0.000000 0.000000 0.000000 8.526318 25.781078 60.764792 0.000016 32.555277 -0.000021 -7.926606 -23.053079 -5.669101 37.238547 11.416249 9.503790 21.039151 -27.717567 1.484878 6.453977 -9.654008 -2.759942 0.000001 -0.000002 -0.000000 2.191279 -5.070351 46.723494 2.298129 -5.168473 47.920771 0.598772 -2.827547 23.908507 -0.000001 0.000000 0.000000 2.191277 -5.070352 46.723494 2.298140 -5.168471 47.920771 0.598767 -2.827547 23.908519 0.000000 0.000002 0.000001 2.191278 -5.070347 46.723500 2.298143 -5.168475 47.920781 0.598769 -2.827544 23.908505 -0.000002 -0.000001 -0.000000 -20.438465 12.654812 14.061919 38.697912 -4.513123 4.737946 -16.410209 3.265385 -10.122327 -0.000060 -0.000002 0.000006 0.000000 -0.000002 0.000000 -13.206931 -21.849884 -13.287682 31.268763 10.091123 -9.285179 -16.553039 -3.963984 14.178223 -0.001999 -0.000015 0.000001 0.000000 0.000001 -0.000000 
